<svg width="140" height="140" viewBox="0 0 140 140" fill="none" xmlns="http://www.w3.org/2000/svg">
<g filter="url(#filter0_i_9_56)">
<rect width="140" height="140" rx="4" fill="#E5E7EB"/>
<g filter="url(#filter1_dd_9_56)">
<rect x="33.5" y="22" width="73" height="96" rx="4" fill="white"/>
<path d="M62.9416 55.0554C62.7924 54.1222 62.0616 53.5767 61.139 53.5767C60.0098 53.5767 59.1767 54.4226 59.1767 55.8182C59.1767 57.2138 60.0055 58.0597 61.139 58.0597C62.0978 58.0597 62.7988 57.4588 62.9416 56.5959L62.2768 56.5938C62.1639 57.152 61.6951 57.4588 61.1433 57.4588C60.3954 57.4588 59.8308 56.8857 59.8308 55.8182C59.8308 54.7592 60.3933 54.1776 61.1454 54.1776C61.7015 54.1776 62.1681 54.4908 62.2768 55.0554H62.9416ZM64.3153 56.0568C64.3153 55.5348 64.6456 55.2365 65.0994 55.2365C65.5384 55.2365 65.8004 55.5156 65.8004 55.995V58H66.4375V55.9183C66.4375 55.1023 65.9901 54.6847 65.3168 54.6847C64.8075 54.6847 64.5007 54.9062 64.3473 55.2599H64.3068V53.6364H63.6783V58H64.3153V56.0568ZM68.2401 58.0724C68.7812 58.0724 69.0859 57.7976 69.2074 57.5526H69.233V58H69.8551V55.8267C69.8551 54.8743 69.1051 54.6847 68.5852 54.6847C67.9929 54.6847 67.4474 54.9233 67.2344 55.5199L67.8331 55.6562C67.9268 55.424 68.1655 55.2003 68.5938 55.2003C69.005 55.2003 69.2159 55.4155 69.2159 55.7862V55.8011C69.2159 56.0334 68.9773 56.0291 68.3892 56.0973C67.7692 56.1697 67.1342 56.3317 67.1342 57.0753C67.1342 57.7188 67.6179 58.0724 68.2401 58.0724ZM68.3786 57.5611C68.0185 57.5611 67.7585 57.3991 67.7585 57.0838C67.7585 56.7429 68.0611 56.6214 68.4297 56.5724C68.6364 56.5447 69.1264 56.4893 69.218 56.3977V56.8196C69.218 57.2074 68.9091 57.5611 68.3786 57.5611ZM70.7037 59.2273H71.3407V57.4908H71.3791C71.4941 57.6996 71.7285 58.0639 72.3251 58.0639C73.1177 58.0639 73.693 57.429 73.693 56.37C73.693 55.3089 73.1092 54.6847 72.3187 54.6847C71.7115 54.6847 71.492 55.0554 71.3791 55.2578H71.3258V54.7273H70.7037V59.2273ZM71.3279 56.3636C71.3279 55.6797 71.6262 55.2259 72.1824 55.2259C72.7598 55.2259 73.0495 55.7138 73.0495 56.3636C73.0495 57.0199 72.7512 57.5206 72.1824 57.5206C71.6348 57.5206 71.3279 57.0518 71.3279 56.3636ZM75.9345 54.7273H75.2633V53.9432H74.6262V54.7273H74.1468V55.2386H74.6262V57.1712C74.6241 57.7656 75.0779 58.0533 75.5808 58.0426C75.7832 58.0405 75.9196 58.0021 75.9941 57.9744L75.8791 57.4482C75.8365 57.4567 75.7576 57.4759 75.6554 57.4759C75.4487 57.4759 75.2633 57.4077 75.2633 57.0391V55.2386H75.9345V54.7273ZM78.0146 58.0661C78.7283 58.0661 79.2333 57.7145 79.3782 57.1818L78.7752 57.0732C78.6602 57.3821 78.3832 57.5398 78.021 57.5398C77.4755 57.5398 77.109 57.1861 77.092 56.5554H79.4187V56.3295C79.4187 55.147 78.7113 54.6847 77.9698 54.6847C77.0579 54.6847 76.457 55.3793 76.457 56.3849C76.457 57.4013 77.0494 58.0661 78.0146 58.0661ZM77.0941 56.0781C77.1197 55.6136 77.4563 55.2109 77.9741 55.2109C78.4684 55.2109 78.7923 55.5774 78.7944 56.0781H77.0941ZM80.1255 58H80.7626V56.0014C80.7626 55.5732 81.0929 55.2642 81.5446 55.2642C81.6767 55.2642 81.8258 55.2876 81.877 55.3026V54.6932C81.813 54.6847 81.6873 54.6783 81.6064 54.6783C81.2228 54.6783 80.8947 54.8956 80.7754 55.2472H80.7413V54.7273H80.1255V58Z" fill="#4B5563"/>
<path d="M62.6346 60.8182H62.9755C62.9599 60.3793 62.555 60.0511 61.9925 60.0511C61.4357 60.0511 60.9982 60.375 60.9982 60.8636C60.9982 61.2557 61.2823 61.4886 61.7369 61.6193L62.0948 61.7216C62.4016 61.8068 62.6744 61.9148 62.6744 62.2045C62.6744 62.5227 62.3675 62.733 61.9641 62.733C61.6175 62.733 61.3107 62.5795 61.2823 62.25H60.9187C60.9528 62.7273 61.3391 63.0511 61.9641 63.0511C62.6346 63.0511 63.0153 62.6818 63.0153 62.2102C63.0153 61.6648 62.4982 61.4886 62.1971 61.4091L61.9016 61.3295C61.6857 61.2727 61.3391 61.1591 61.3391 60.8466C61.3391 60.5682 61.5948 60.3636 61.9812 60.3636C62.3335 60.3636 62.6005 60.5312 62.6346 60.8182ZM63.549 63H63.8842V61.6364C63.8842 61.3168 64.1172 61.0909 64.3786 61.0909C64.6328 61.0909 64.8104 61.2571 64.8104 61.5057V63H65.1513V61.5795C65.1513 61.2983 65.3274 61.0909 65.6342 61.0909C65.8729 61.0909 66.0774 61.2173 66.0774 61.5398V63H66.4126V61.5398C66.4126 61.027 66.1371 60.7898 65.7479 60.7898C65.4354 60.7898 65.2067 60.9332 65.0945 61.1591H65.0717C64.9638 60.9261 64.7734 60.7898 64.4865 60.7898C64.2024 60.7898 63.9922 60.9261 63.9013 61.1591H63.8729V60.8182H63.549V63ZM67.6676 63.0511C68.0483 63.0511 68.2472 62.8466 68.3153 62.7045H68.3324V63H68.6676V61.5625C68.6676 60.8693 68.1392 60.7898 67.8608 60.7898C67.5312 60.7898 67.1562 60.9034 66.9858 61.3011L67.304 61.4148C67.3778 61.2557 67.5526 61.0852 67.8722 61.0852C68.1804 61.0852 68.3324 61.2486 68.3324 61.5284V61.5398C68.3324 61.7017 68.1676 61.6875 67.7699 61.7386C67.3651 61.7912 66.9233 61.8807 66.9233 62.3807C66.9233 62.8068 67.2528 63.0511 67.6676 63.0511ZM67.7188 62.75C67.4517 62.75 67.2585 62.6307 67.2585 62.3977C67.2585 62.142 67.4915 62.0625 67.7528 62.0284C67.8949 62.0114 68.2756 61.9716 68.3324 61.9034V62.2102C68.3324 62.483 68.1165 62.75 67.7188 62.75ZM69.6147 60.0909H69.2795V63H69.6147V60.0909ZM70.5639 60.0909H70.2287V63H70.5639V60.0909ZM73.2518 60.8182H72.7859V60.2955H72.4506V60.8182H72.1211V61.1023H72.4506V62.4659C72.4506 62.8466 72.7575 63.0284 73.0415 63.0284C73.1665 63.0284 73.2461 63.0057 73.2915 62.9886L73.2234 62.6875C73.195 62.6932 73.1495 62.7045 73.0756 62.7045C72.9279 62.7045 72.7859 62.6591 72.7859 62.375V61.1023H73.2518V60.8182ZM74.6474 63.0455C75.0906 63.0455 75.4144 62.8239 75.5167 62.4943L75.1928 62.4034C75.1076 62.6307 74.9102 62.7443 74.6474 62.7443C74.2539 62.7443 73.9826 62.4901 73.967 62.0227H75.5508V61.8807C75.5508 61.0682 75.0678 60.7898 74.6133 60.7898C74.0224 60.7898 73.6303 61.2557 73.6303 61.9261C73.6303 62.5966 74.0167 63.0455 74.6474 63.0455ZM73.967 61.733C73.9897 61.3935 74.2298 61.0909 74.6133 61.0909C74.9769 61.0909 75.2099 61.3636 75.2099 61.733H73.967ZM76.2521 60.8182H75.8658L76.5589 61.9091L75.8658 63H76.2521L76.7749 62.1534L77.2976 63H77.6839L76.9794 61.9091L77.6839 60.8182H77.2976L76.7749 61.7102L76.2521 60.8182ZM79.1112 60.8182H78.6452V60.2955H78.31V60.8182H77.9805V61.1023H78.31V62.4659C78.31 62.8466 78.6168 63.0284 78.9009 63.0284C79.0259 63.0284 79.1055 63.0057 79.1509 62.9886L79.0827 62.6875C79.0543 62.6932 79.0089 62.7045 78.935 62.7045C78.7873 62.7045 78.6452 62.6591 78.6452 62.375V61.1023H79.1112V60.8182Z" fill="#4B5563"/>
</g>
</g>
<defs>
<filter id="filter0_i_9_56" x="0" y="0" width="140" height="142" filterUnits="userSpaceOnUse" color-interpolation-filters="sRGB">
<feFlood flood-opacity="0" result="BackgroundImageFix"/>
<feBlend mode="normal" in="SourceGraphic" in2="BackgroundImageFix" result="shape"/>
<feColorMatrix in="SourceAlpha" type="matrix" values="0 0 0 0 0 0 0 0 0 0 0 0 0 0 0 0 0 0 127 0" result="hardAlpha"/>
<feOffset dy="2"/>
<feGaussianBlur stdDeviation="2"/>
<feComposite in2="hardAlpha" operator="arithmetic" k2="-1" k3="1"/>
<feColorMatrix type="matrix" values="0 0 0 0 0 0 0 0 0 0 0 0 0 0 0 0 0 0 0.06 0"/>
<feBlend mode="normal" in2="shape" result="effect1_innerShadow_9_56"/>
</filter>
<filter id="filter1_dd_9_56" x="28.5" y="21" width="83" height="106" filterUnits="userSpaceOnUse" color-interpolation-filters="sRGB">
<feFlood flood-opacity="0" result="BackgroundImageFix"/>
<feColorMatrix in="SourceAlpha" type="matrix" values="0 0 0 0 0 0 0 0 0 0 0 0 0 0 0 0 0 0 127 0" result="hardAlpha"/>
<feMorphology radius="1" operator="erode" in="SourceAlpha" result="effect1_dropShadow_9_56"/>
<feOffset dy="2"/>
<feGaussianBlur stdDeviation="2"/>
<feColorMatrix type="matrix" values="0 0 0 0 0 0 0 0 0 0 0 0 0 0 0 0 0 0 0.06 0"/>
<feBlend mode="normal" in2="BackgroundImageFix" result="effect1_dropShadow_9_56"/>
<feColorMatrix in="SourceAlpha" type="matrix" values="0 0 0 0 0 0 0 0 0 0 0 0 0 0 0 0 0 0 127 0" result="hardAlpha"/>
<feMorphology radius="1" operator="erode" in="SourceAlpha" result="effect2_dropShadow_9_56"/>
<feOffset dy="4"/>
<feGaussianBlur stdDeviation="3"/>
<feColorMatrix type="matrix" values="0 0 0 0 0 0 0 0 0 0 0 0 0 0 0 0 0 0 0.1 0"/>
<feBlend mode="normal" in2="effect1_dropShadow_9_56" result="effect2_dropShadow_9_56"/>
<feBlend mode="normal" in="SourceGraphic" in2="effect2_dropShadow_9_56" result="shape"/>
</filter>
</defs>
</svg>
