<svg width="140" height="140" viewBox="0 0 140 140" fill="none" xmlns="http://www.w3.org/2000/svg">
<g filter="url(#filter0_i_7_27)">
<rect width="140" height="140" rx="4" fill="#E5E7EB"/>
<g filter="url(#filter1_dd_7_27)">
<rect x="33.5" y="22" width="73" height="96" rx="4" fill="white"/>
<rect x="37.5" y="26" width="22" height="2" rx="1" fill="#E5E7EB"/>
<path d="M37.5 30C37.5 29.4477 37.9477 29 38.5 29H58.5C59.0523 29 59.5 29.4477 59.5 30V34C59.5 34.5523 59.0523 35 58.5 35H38.5C37.9477 35 37.5 34.5523 37.5 34V30Z" fill="#E5E7EB"/>
<path d="M78.1064 32H78.7647V30.3487H79.6596C79.6745 30.3487 79.6873 30.3487 79.7022 30.3487L80.5886 32H81.3386L80.3713 30.2337C80.9061 30.0355 81.1724 29.5902 81.1724 29.0043C81.1724 28.201 80.6738 27.6364 79.6618 27.6364H78.1064V32ZM78.7647 29.782V28.201H79.5914C80.2413 28.201 80.5098 28.5099 80.5098 29.0043C80.5098 29.4964 80.2413 29.782 79.6 29.782H78.7647ZM81.9735 32H84.7349V31.4332H82.6319V30.0973H84.5666V29.5327H82.6319V28.2031H84.7093V27.6364H81.9735V32ZM89.2131 29.0554C89.0639 28.1222 88.3331 27.5767 87.4105 27.5767C86.2812 27.5767 85.4482 28.4226 85.4482 29.8182C85.4482 31.2138 86.277 32.0597 87.4105 32.0597C88.3693 32.0597 89.0703 31.4588 89.2131 30.5959L88.5483 30.5938C88.4354 31.152 87.9666 31.4588 87.4148 31.4588C86.6669 31.4588 86.1023 30.8857 86.1023 29.8182C86.1023 28.7592 86.6648 28.1776 87.4169 28.1776C87.973 28.1776 88.4396 28.4908 88.5483 29.0554H89.2131ZM90.0009 32H92.7623V31.4332H90.6593V30.0973H92.5939V29.5327H90.6593V28.2031H92.7367V27.6364H90.0009V32ZM94.2745 27.6364H93.6161V32H94.2745V27.6364ZM95.2333 32H95.8917V30.4659H96.7866C97.7987 30.4659 98.2994 29.8544 98.2994 29.049C98.2994 28.2457 97.8029 27.6364 96.7887 27.6364H95.2333V32ZM95.8917 29.9077V28.201H96.7184C97.3704 28.201 97.6367 28.5547 97.6367 29.049C97.6367 29.5433 97.3704 29.9077 96.7269 29.9077H95.8917ZM98.856 28.2031H100.215V32H100.872V28.2031H102.233V27.6364H98.856V28.2031Z" fill="#4B5563"/>
<rect x="37.5" y="40" width="65" height="6" rx="1" fill="#E5E7EB"/>
<rect x="37.5" y="51" width="65" height="29" rx="1" fill="#E5E7EB"/>
<path d="M37.5 86C37.5 85.4477 37.9477 85 38.5 85H76.5C77.0523 85 77.5 85.4477 77.5 86V98C77.5 98.5523 77.0523 99 76.5 99H38.5C37.9477 99 37.5 98.5523 37.5 98V86Z" fill="#E5E7EB"/>
<path d="M80.5 86C80.5 85.4477 80.9477 85 81.5 85H101.5C102.052 85 102.5 85.4477 102.5 86V93C102.5 93.5523 102.052 94 101.5 94H81.5C80.9477 94 80.5 93.5523 80.5 93V86Z" fill="#E5E7EB"/>
<path d="M80.5 96C80.5 95.4477 80.9477 95 81.5 95H101.5C102.052 95 102.5 95.4477 102.5 96V96C102.5 96.5523 102.052 97 101.5 97H81.5C80.9477 97 80.5 96.5523 80.5 96V96Z" fill="#E5E7EB"/>
</g>
</g>
<defs>
<filter id="filter0_i_7_27" x="0" y="0" width="140" height="142" filterUnits="userSpaceOnUse" color-interpolation-filters="sRGB">
<feFlood flood-opacity="0" result="BackgroundImageFix"/>
<feBlend mode="normal" in="SourceGraphic" in2="BackgroundImageFix" result="shape"/>
<feColorMatrix in="SourceAlpha" type="matrix" values="0 0 0 0 0 0 0 0 0 0 0 0 0 0 0 0 0 0 127 0" result="hardAlpha"/>
<feOffset dy="2"/>
<feGaussianBlur stdDeviation="2"/>
<feComposite in2="hardAlpha" operator="arithmetic" k2="-1" k3="1"/>
<feColorMatrix type="matrix" values="0 0 0 0 0 0 0 0 0 0 0 0 0 0 0 0 0 0 0.06 0"/>
<feBlend mode="normal" in2="shape" result="effect1_innerShadow_7_27"/>
</filter>
<filter id="filter1_dd_7_27" x="28.5" y="21" width="83" height="106" filterUnits="userSpaceOnUse" color-interpolation-filters="sRGB">
<feFlood flood-opacity="0" result="BackgroundImageFix"/>
<feColorMatrix in="SourceAlpha" type="matrix" values="0 0 0 0 0 0 0 0 0 0 0 0 0 0 0 0 0 0 127 0" result="hardAlpha"/>
<feMorphology radius="1" operator="erode" in="SourceAlpha" result="effect1_dropShadow_7_27"/>
<feOffset dy="2"/>
<feGaussianBlur stdDeviation="2"/>
<feColorMatrix type="matrix" values="0 0 0 0 0 0 0 0 0 0 0 0 0 0 0 0 0 0 0.06 0"/>
<feBlend mode="normal" in2="BackgroundImageFix" result="effect1_dropShadow_7_27"/>
<feColorMatrix in="SourceAlpha" type="matrix" values="0 0 0 0 0 0 0 0 0 0 0 0 0 0 0 0 0 0 127 0" result="hardAlpha"/>
<feMorphology radius="1" operator="erode" in="SourceAlpha" result="effect2_dropShadow_7_27"/>
<feOffset dy="4"/>
<feGaussianBlur stdDeviation="3"/>
<feColorMatrix type="matrix" values="0 0 0 0 0 0 0 0 0 0 0 0 0 0 0 0 0 0 0.1 0"/>
<feBlend mode="normal" in2="effect1_dropShadow_7_27" result="effect2_dropShadow_7_27"/>
<feBlend mode="normal" in="SourceGraphic" in2="effect2_dropShadow_7_27" result="shape"/>
</filter>
</defs>
</svg>
